<svg width="74" height="74" viewBox="0 0 74 74" fill="none" xmlns="http://www.w3.org/2000/svg">
<g id="BookLogo">
<g id="Circle">
<path id="SemiCircle2" d="M74 37C74 27.187 70.1018 17.7759 63.163 10.8371C56.2241 3.8982 46.813 7.40862e-07 37 0C27.187 -7.40862e-07 17.7759 3.8982 10.8371 10.837C3.89821 17.7759 1.48172e-06 27.187 0 37L13.2345 37C13.2345 30.697 15.7383 24.6521 20.1952 20.1952C24.6521 15.7383 30.697 13.2345 37 13.2345C43.303 13.2345 49.3479 15.7383 53.8048 20.1952C58.2617 24.6521 60.7655 30.697 60.7655 37H74Z" fill="#FA98DE"/>
<path id="SemiCircle1" d="M0 37C-8.5788e-07 46.813 3.8982 56.2241 10.837 63.1629C17.7759 70.1018 27.187 74 37 74C46.813 74 56.2241 70.1018 63.1629 63.163C70.1018 56.2241 74 46.813 74 37L60.7655 37C60.7655 43.303 58.2617 49.3479 53.8048 53.8048C49.3479 58.2617 43.303 60.7655 37 60.7655C30.697 60.7655 24.6521 58.2617 20.1952 53.8048C15.7383 49.3479 13.2345 43.303 13.2345 37L0 37Z" fill="#8AA4FF"/>
</g>
<g id="BookMark">
<path id="Polygon" d="M35.6658 16.6624C36.5063 16.2451 37.4937 16.2451 38.3342 16.6624L56.9848 25.9229C58.0053 26.4296 58.6506 27.4706 58.6506 28.6099V46.3901C58.6506 47.5294 58.0053 48.5704 56.9848 49.0771L38.3342 58.3376C37.4937 58.7549 36.5063 58.7549 35.6658 58.3376L17.0152 49.0771C15.9947 48.5704 15.3494 47.5294 15.3494 46.3901V28.6099C15.3494 27.4706 15.9947 26.4296 17.0152 25.9229L35.6658 16.6624Z" fill="#5C75CB"/>
<path id="Book" d="M26 49.7957V30.5269V23.6022V23.3011C26 23.3011 26 23 26.4885 23H47.9385H48.6462C49 23 49 23.3011 49 23.6022V24.8065V25.1075V26.3118C49 26.6129 48.6462 26.6129 48.6462 26.6129H47.9385H32.3692C31.6615 26.6129 31.6615 26.914 31.6615 28.1183C31.6615 29.3226 31.6615 29.2222 32.3692 29.2222H35.4091H38.0227H41.6818H46.3864C47.8017 29.2222 47.9385 30.2708 47.9385 30.5269V49.7957C47.9385 50.0968 47.9385 50.3979 47.5846 50.6989C47.2308 51 46.5231 51 46.1692 51H29.8923H26.7077C26 51 26 49.7957 26 49.7957Z" fill="#9DB2FD"/>
<path id="BookMark_2" d="M34.3636 40.6296V29.2222H41.6818V40.6296L38.0227 37.0173L34.3636 40.6296Z" fill="#F45BC9"/>
</g>
</g>
</svg>
